<svg width="24" height="24" viewBox="0 0 24 24" fill="none" xmlns="http://www.w3.org/2000/svg">
    <path d="M14.275 17.25C14.4583 17.0833 14.5583 16.875 14.575 16.625C14.5917 16.375 14.5083 16.1583 14.325 15.975L11.55 13.05L11.575 12.975H11.825C12.725 12.975 13.471 12.7 14.063 12.15C14.655 11.6 15.0173 10.9583 15.15 10.225H15.575C15.7417 10.225 15.8793 10.1667 15.988 10.05C16.0967 9.93333 16.1507 9.79167 16.15 9.625C16.1493 9.45833 16.0953 9.32067 15.988 9.212C15.8807 9.10333 15.743 9.04933 15.575 9.05H15.125C15.075 8.8 14.9877 8.56267 14.863 8.338C14.7383 8.11333 14.584 7.89233 14.4 7.675H15.575C15.7417 7.675 15.8793 7.61667 15.988 7.5C16.0967 7.38333 16.1507 7.24167 16.15 7.075C16.1493 6.90833 16.0953 6.771 15.988 6.663C15.8807 6.555 15.743 6.50067 15.575 6.5H8.575C8.375 6.5 8.20433 6.571 8.063 6.713C7.92167 6.855 7.85067 7.02567 7.85 7.225C7.84933 7.42433 7.92033 7.591 8.063 7.725C8.20567 7.859 8.37633 7.92567 8.575 7.925H11.75C12.1833 7.925 12.5377 8.03333 12.813 8.25C13.0883 8.46667 13.2757 8.73333 13.375 9.05H8.425C8.25834 9.05 8.12067 9.10833 8.012 9.225C7.90333 9.34167 7.84933 9.48333 7.85 9.65C7.85067 9.81667 7.905 9.95433 8.013 10.063C8.121 10.1717 8.25834 10.2257 8.425 10.225H13.4C13.3 10.5583 13.1083 10.846 12.825 11.088C12.5417 11.33 12.1583 11.4507 11.675 11.45H9.975C9.75834 11.45 9.571 11.5 9.413 11.6C9.255 11.7 9.134 11.8417 9.05 12.025C8.966 12.2083 8.941 12.396 8.975 12.588C9.009 12.78 9.10067 12.959 9.25 13.125L13 17.225C13.1667 17.4083 13.375 17.5 13.625 17.5C13.875 17.5 14.0917 17.4167 14.275 17.25ZM12 22C10.6167 22 9.31667 21.7373 8.1 21.212C6.88334 20.6867 5.825 19.9743 4.925 19.075C4.025 18.1757 3.31267 17.1173 2.788 15.9C2.26333 14.6827 2.00067 13.3827 2 12C1.99933 10.6173 2.262 9.31733 2.788 8.1C3.314 6.88267 4.02633 5.82433 4.925 4.925C5.82367 4.02567 6.882 3.31333 8.1 2.788C9.318 2.26267 10.618 2 12 2C13.382 2 14.682 2.26267 15.9 2.788C17.118 3.31333 18.1763 4.02567 19.075 4.925C19.9737 5.82433 20.6863 6.88267 21.213 8.1C21.7397 9.31733 22.002 10.6173 22 12C21.998 13.3827 21.7353 14.6827 21.212 15.9C20.6887 17.1173 19.9763 18.1757 19.075 19.075C18.1737 19.9743 17.1153 20.687 15.9 21.213C14.6847 21.739 13.3847 22.0013 12 22Z" fill="#EAECEF"/>
    </svg>
    