<svg width="50" height="50" viewBox="0 0 50 50" fill="none" xmlns="http://www.w3.org/2000/svg">
    <path d="M42.1875 14.8438H25.3242L19.7598 9.28125C19.543 9.06268 19.2849 8.88935 19.0006 8.77133C18.7163 8.65331 18.4114 8.59295 18.1035 8.59375H7.8125C7.1909 8.59375 6.59476 8.84068 6.15522 9.28022C5.71568 9.71976 5.46875 10.3159 5.46875 10.9375V39.1836C5.46978 39.7728 5.70429 40.3375 6.12089 40.7541C6.5375 41.1707 7.10224 41.4052 7.69141 41.4062H42.3613C42.9367 41.4057 43.4883 41.1769 43.8951 40.7701C44.3019 40.3633 44.5307 39.8117 44.5312 39.2363V17.1875C44.5312 16.5659 44.2843 15.9698 43.8448 15.5302C43.4052 15.0907 42.8091 14.8438 42.1875 14.8438ZM7.03125 10.9375C7.03125 10.7303 7.11356 10.5316 7.26007 10.3851C7.40659 10.2386 7.6053 10.1563 7.8125 10.1563H18.1035C18.3101 10.1566 18.5081 10.2388 18.6543 10.3848L23.1133 14.8438H7.03125V10.9375ZM42.9688 39.2363C42.9682 39.3973 42.9041 39.5515 42.7903 39.6653C42.6765 39.7791 42.5223 39.8432 42.3613 39.8437H7.69141C7.51648 39.8432 7.34887 39.7735 7.22517 39.6498C7.10148 39.5261 7.03177 39.3585 7.03125 39.1836V16.4062H42.1875C42.3947 16.4062 42.5934 16.4886 42.7399 16.6351C42.8864 16.7816 42.9688 16.9803 42.9688 17.1875V39.2363Z" fill="#E3E4E6"/>
    </svg>
    